<svg id="tick1" xmlns="http://www.w3.org/2000/svg" width="26.722" height="25.95" viewBox="0 0 26.722 25.95">
  <g id="Group_22" data-name="Group 22">
    <path id="Path_15" data-name="Path 15" d="M13.361,0A13.188,13.188,0,0,0,0,12.975,13.188,13.188,0,0,0,13.361,25.95,13.188,13.188,0,0,0,26.722,12.975,13.188,13.188,0,0,0,13.361,0Zm7.468,9.561L12.29,17.788a1.342,1.342,0,0,1-1.842.033l-4.521-4A1.292,1.292,0,0,1,5.827,12,1.353,1.353,0,0,1,7.7,11.934l3.583,3.187L18.92,7.707a1.362,1.362,0,0,1,1.909,0A1.27,1.27,0,0,1,20.829,9.561Z" fill="#4ebf5a"/>
  </g>
</svg>
