<svg xmlns="http://www.w3.org/2000/svg" width="31.805" height="31.805" viewBox="0 0 31.805 31.805">
  <defs>
    <style>
      .cls-1 {
        fill: #f9f9f9;
      }
    </style>
  </defs>
  <g id="clock" transform="translate(0 0)">
    <path id="Path_9" data-name="Path 9" class="cls-1" d="M28.459,8.369a1.325,1.325,0,0,0-.616,1.77A13.117,13.117,0,0,1,29.155,15.9,13.252,13.252,0,1,1,15.9,2.65,13.093,13.093,0,0,1,24.13,5.509a1.325,1.325,0,1,0,1.649-2.075A15.9,15.9,0,1,0,31.806,15.9a15.74,15.74,0,0,0-1.577-6.918,1.324,1.324,0,0,0-1.77-.616Zm0,0" transform="translate(0 0)"/>
    <path id="Path_10" data-name="Path 10" class="cls-1" d="M177.325,64A1.326,1.326,0,0,0,176,65.325V74.6a1.326,1.326,0,0,0,1.325,1.325h6.626a1.325,1.325,0,0,0,0-2.65h-5.3V65.325A1.326,1.326,0,0,0,177.325,64Zm0,0" transform="translate(-161.423 -58.699)"/>
  </g>
</svg>
